<svg version="1.2" xmlns="http://www.w3.org/2000/svg" viewBox="0 0 1024 1033" width="1024" height="1033">
	<style>
		.s0 { fill: #2da851 } 
	</style>
	<path class="s0" d="m919 47c-1.48 4.71-3.28 9.26-5.12 13.84-9.4 23.47-14.56 47.47-19.57 72.22q-0.28 1.4-0.57 2.84c-3.25 16.32-5.72 32.79-7.86 49.29q-0.22 1.66-0.44 3.37c-5.04 39.59-7.59 79.47-10.69 119.24-2.16 27.67-4.48 55.3-7.56 82.89q-0.19 1.7-0.39 3.46c-2.27 20.31-5.03 40.49-8.43 60.64q-0.56 3.33-1.1 6.66c-15.99 96.73-48.95 189.66-141.45 308.52-2.08 2.2-4.06 4.46-6.03 6.75-3.58 4.1-7.34 7.97-11.19 11.82q-1.02 1.01-2.07 2.06-2.14 2.15-4.29 4.29-3.26 3.25-6.5 6.51-2.1 2.1-4.2 4.2-0.96 0.95-1.93 1.93c-4.38 4.36-8.93 8.45-13.61 12.47q-1.64 1.43-3.28 2.85c-14.75 12.74-29.91 24.75-45.72 36.15q-1.08 0.78-2.19 1.59c-42.43 30.73-89.42 54.23-138.81 71.41q-2.9 1.03-5.81 2.07c-26.3 9.21-53.79 16.84-81.19 21.93-1.79 0.34-1.79 0.34-3.62 0.68-42.2 7.86-84.58 12.43-127.38 15.32-1.24 0.08-1.24 0.08-2.5 0.17q-10.85 0.73-21.7 1.39c-8.1 0.51-16.18 1.15-24.26 1.83-6.2 0.51-12.32 0.72-18.54 0.61 2.84-13.49 6.68-26.63 11.06-39.69q0.36-1.06 0.72-2.15c12.04-35.85 27.5-70.28 44.22-104.16q1.05-2.14 2.09-4.27 2.92-5.89 5.91-11.73 0.83-1.63 1.68-3.3c11-21.63 22.43-42.94 35.08-63.65q2.08-3.45 4.13-6.92c8.05-13.48 16.62-26.57 25.38-39.6q1.36-2.02 2.73-4.05c0.65-0.97 0.65-0.97 1.32-1.97q3.8-5.65 7.43-11.4c3.15-4.99 6.47-9.85 9.87-14.67q0.9-1.28 1.83-2.6c5.58-7.91 11.24-15.77 16.93-23.6q2.49-3.45 4.97-6.91c5.59-7.78 11.24-15.49 17.13-23.06 2.87-3.7 5.66-7.45 8.46-11.21 5.12-6.86 10.37-13.61 15.69-20.32q2.83-3.59 5.64-7.19c8.62-10.99 17.39-21.85 26.21-32.68q1.98-2.44 3.97-4.89 6.68-8.18 13.53-16.22 4.09-4.81 8.02-9.76c8.19-10.32 16.9-20.24 25.49-30.24q2.24-2.61 4.48-5.23c20.11-23.5 20.11-23.5 29.83-34.12 2.52-2.76 4.98-5.58 7.44-8.4 5.83-6.66 11.83-13.18 17.82-19.7q3.69-4 7.25-8.12c5.1-5.88 10.48-11.5 15.81-17.18q2.8-2.99 5.58-6c6.31-6.8 12.66-13.53 19.3-20.01-11.89 5.88-23.38 12.67-34.69 19.59q-2.56 1.56-5.12 3.12c-22.15 13.48-43.89 27.51-65.19 42.29q-1.21 0.84-2.46 1.7c-28.11 19.46-55.26 40.2-81.74 61.83q-2.38 1.94-4.76 3.87-15.26 12.39-29.82 25.6-3.02 2.72-6.1 5.38c-3.91 3.4-7.73 6.91-11.55 10.42q-4.9 4.52-9.88 8.95c-3.42 3.06-6.69 6.22-9.9 9.49-1.67 1.64-3.39 3.15-5.18 4.66-5.57 4.84-10.74 10.08-15.94 15.3q-2.6 2.6-5.2 5.2c-5.18 5.17-10.27 10.36-15.02 15.93-2.2 2.53-4.56 4.83-6.95 7.17-3.71 3.66-7.25 7.39-10.63 11.35-1.9 2.18-3.85 4.3-5.82 6.42-4.83 5.21-9.41 10.54-13.87 16.08-2.16 2.62-4.39 5.14-6.68 7.65-3.89 4.27-7.56 8.67-11.19 13.16q-3.56 4.36-7.19 8.65c-4.98 5.98-9.8 12.08-14.58 18.22q-2.49 3.19-5 6.37c-6.23 7.94-12.32 15.94-18.13 24.19q-3.12 4.42-6.36 8.75c-5.11 6.91-10.03 13.93-14.86 21.04q-5.58 8.21-11.3 16.34c-6.47 9.23-12.69 18.54-18.58 28.16-2 3.24-4.07 6.44-6.12 9.64q-9.13 14.25-17.88 28.73-0.53 0.89-1.09 1.8-5.37 8.85-10.67 17.73c-0.77 1.28-0.77 1.28-1.55 2.58q-1.4 2.33-2.78 4.66c-1.02 1.7-2.11 3.34-3.22 4.98q-0.99 0-2 0-1.88-5.56-3.75-11.12-0.52-1.54-1.05-3.12c-4.23-12.6-7.72-25.19-10.2-38.26-0.19-1-0.19-1-0.38-2.01-10.05-52.98-12.77-107.8-7.62-161.49q0.18-1.95 0.36-3.96c4.64-50.58 15.97-100.33 32.97-148.15q0.93-2.62 1.84-5.24c13.88-39.84 33.39-78.75 58.42-112.73q2.42-3.3 4.83-6.62c6.3-8.64 12.67-17.14 19.58-25.3q1.32-1.58 2.64-3.16c5.16-6.17 10.43-12.2 15.88-18.11q1.97-2.15 3.88-4.37c5.29-6.21 11.03-11.94 16.8-17.69q2.6-2.6 5.2-5.2c5.17-5.18 10.35-10.28 15.92-15.03 2.57-2.2 5.02-4.51 7.49-6.81 5.55-5.12 11.3-9.92 17.19-14.63q1.68-1.37 3.36-2.73c29.77-24.2 61.93-45.01 95.64-63.27q1.15-0.63 2.33-1.27c48.93-26.75 101.67-44.49 155.67-57.73q1.66-0.41 3.36-0.83c28.67-6.96 58.15-11.21 87.26-15.79q2.81-0.45 5.61-0.89 1.36-0.21 2.76-0.43c26.45-4.18 52.75-8.91 79.03-14.07q3.18-0.63 6.36-1.25c25.98-5.09 51.97-10.33 77.62-16.93q3.78-0.96 7.56-1.92 1.83-0.46 3.71-0.94 5.71-1.45 11.42-2.88 0.98-0.24 2-0.5 5.45-1.36 10.92-2.69c12.22-2.98 24.3-6.36 36.36-9.91q4.64-1.36 9.27-2.71c10.37-3.03 20.7-6.12 30.96-9.49 3.05-0.98 5.58-1.77 8.8-1.77z"/>
</svg>